<?xml version="1.0" standalone="no"?>
<!DOCTYPE svg PUBLIC "-//W3C//DTD SVG 20010904//EN"
 "http://www.w3.org/TR/2001/REC-SVG-20010904/DTD/svg10.dtd">
<svg version="1.0" xmlns="http://www.w3.org/2000/svg"
 width="101.000000pt" height="101.000000pt" viewBox="0 0 101.000000 101.000000"
 preserveAspectRatio="xMidYMid meet">
<metadata>
Created by potrace 1.14, written by Peter Selinger 2001-2017
</metadata>
<g transform="translate(0.000000,101.000000) scale(0.100000,-0.100000)"
fill="#000000" stroke="none">
<path d="M475 998 c-2 -7 -6 -22 -8 -33 -4 -15 -5 -13 -6 7 -1 20 -5 26 -17
21 -9 -3 -13 -12 -9 -22 10 -23 11 -110 3 -104 -5 2 -8 21 -8 41 0 70 -7 79
-52 76 -24 -2 -46 -10 -54 -21 -11 -14 -13 -15 -14 -3 0 9 -3 11 -8 5 -14 -21
-69 -54 -77 -47 -5 4 -6 0 -2 -9 4 -11 0 -16 -11 -15 -9 0 -16 -4 -15 -10 1
-7 -8 -9 -24 -6 -21 4 -25 2 -20 -12 4 -10 -2 -21 -18 -32 -20 -13 -23 -20
-14 -30 6 -8 16 -11 22 -7 6 4 7 1 2 -7 -6 -10 -2 -12 18 -8 17 3 27 0 31 -11
3 -9 8 -21 11 -27 3 -6 -1 -14 -9 -17 -9 -4 -15 -3 -15 1 4 27 -3 44 -16 39
-8 -4 -17 -2 -20 3 -3 6 -15 15 -27 21 -15 8 -19 8 -14 0 4 -6 3 -11 -2 -11
-5 0 -9 -7 -9 -15 0 -8 5 -11 10 -8 6 3 7 1 3 -5 -8 -13 10 -26 25 -17 7 5 4
14 -8 28 -18 20 -18 20 8 4 14 -10 28 -15 31 -12 2 3 5 -2 5 -10 0 -8 -4 -12
-9 -9 -5 3 -15 0 -23 -6 -12 -10 -18 -10 -29 -1 -14 12 -18 11 -65 -16 -2 -2
1 -8 7 -15 14 -18 16 -30 3 -37 -5 -4 -13 -22 -16 -40 -4 -25 -1 -37 12 -46
17 -13 16 -14 -7 -24 -14 -5 -18 -10 -10 -10 10 -1 7 -7 -9 -17 -21 -15 -21
-18 -7 -26 9 -5 16 -22 16 -38 0 -17 5 -30 13 -31 6 0 4 -4 -6 -7 -17 -7 -16
-9 3 -30 11 -12 16 -22 10 -22 -14 0 -13 -27 3 -33 9 -3 9 -7 -2 -20 -8 -10
-9 -17 -3 -17 15 0 68 -56 64 -68 -5 -17 18 -24 36 -11 13 11 12 8 -2 -9 -17
-20 -15 -27 8 -23 4 1 6 -10 2 -23 -5 -20 -3 -24 8 -20 8 3 24 -4 35 -15 l20
-20 39 46 c28 34 41 43 47 33 5 -8 4 -11 -2 -7 -6 4 -22 -8 -35 -26 -35 -46
-43 -62 -30 -53 7 4 12 2 12 -5 0 -8 4 -8 15 1 8 7 15 17 15 22 0 6 -8 4 -17
-3 -10 -8 -7 0 7 18 26 36 41 35 38 -2 -1 -13 -6 -22 -10 -19 -4 3 -12 -5 -18
-16 -7 -13 -7 -20 0 -20 5 0 10 5 10 12 0 6 3 8 6 5 4 -4 1 -13 -6 -22 -8 -10
-9 -15 -1 -15 6 0 11 -7 11 -15 0 -22 11 -18 37 12 19 23 23 24 21 9 -2 -14 5
-21 25 -27 16 -4 27 -3 27 3 0 5 7 2 16 -7 12 -12 19 -13 24 -5 6 9 9 9 14 1
4 -6 12 -9 17 -6 5 4 9 1 9 -4 0 -6 5 -11 10 -11 6 0 10 7 10 16 0 8 4 13 9 9
5 -3 12 3 14 12 4 14 5 13 6 -4 1 -28 41 -33 41 -5 0 14 2 15 10 2 8 -12 10
-12 11 5 0 15 2 16 7 5 9 -19 32 -24 32 -7 0 15 37 20 45 6 11 -16 25 -10 25
11 0 13 7 20 19 20 11 0 23 9 26 20 4 11 10 18 15 15 5 -3 19 4 30 15 14 14
28 19 41 15 18 -6 20 -4 15 13 -4 11 -2 23 4 27 8 5 7 12 -2 23 -7 10 -8 14
-4 10 5 -4 16 -2 24 5 13 9 14 9 8 -1 -4 -6 -5 -12 -2 -12 3 0 13 16 22 35 11
24 23 35 38 35 33 0 37 9 13 33 -13 13 -17 22 -9 25 7 2 10 8 6 13 -3 5 0 9 5
9 13 0 10 22 -4 32 -6 4 -2 8 8 8 13 0 17 8 17 35 0 19 0 38 -1 41 0 4 5 11
13 16 11 7 10 11 -2 21 -9 6 -14 20 -12 30 6 31 -7 67 -26 68 -14 0 -14 2 -2
7 8 4 17 16 18 27 3 16 1 18 -9 8 -7 -7 -18 -13 -23 -13 -6 0 0 7 12 16 25 17
29 34 7 34 -14 0 -19 12 -16 33 0 4 -4 7 -10 7 -5 0 -7 5 -4 10 3 6 2 10 -3
10 -14 0 -59 -39 -46 -40 5 0 15 5 22 12 6 6 14 9 18 6 3 -4 -9 -14 -26 -23
-18 -9 -29 -12 -26 -6 9 14 -7 14 -21 0 -16 -16 -11 14 5 33 6 8 10 17 7 20
-3 3 5 13 17 24 l23 19 -19 -22 c-11 -13 -16 -23 -11 -23 4 0 2 -7 -5 -15 -7
-8 -8 -15 -2 -15 11 0 30 21 30 33 0 5 4 12 8 15 4 4 4 1 0 -5 -8 -15 10 -18
19 -3 3 6 2 10 -4 10 -5 0 -13 9 -16 21 -7 20 -8 20 -37 -8 l-31 -28 23 32
c19 27 21 35 10 47 -7 9 -16 14 -20 11 -5 -3 -6 3 -3 14 3 11 -2 21 -12 25
-11 4 -14 2 -9 -7 4 -6 4 -9 -1 -5 -4 4 -15 2 -23 -5 -13 -10 -14 -9 -5 8 11
22 6 48 -8 39 -14 -8 -11 -26 4 -18 6 4 8 3 4 -1 -14 -16 -33 -13 -33 5 0 10
4 16 8 14 4 -3 8 0 8 5 0 6 -9 11 -20 11 -11 0 -20 5 -20 10 0 6 -5 10 -11 10
-5 0 -8 -4 -5 -8 3 -5 -1 -9 -9 -9 -8 0 -17 7 -19 14 -4 8 -1 11 5 7 8 -4 8 0
0 15 -10 17 -15 19 -30 9 -15 -9 -24 -8 -47 6 -26 18 -27 18 -20 0 6 -15 5
-16 -5 -7 -9 9 -17 9 -33 1 -19 -10 -20 -10 -7 5 12 15 11 17 -2 17 -11 0 -17
-12 -20 -42 l-4 -43 -1 48 c-2 40 -5 47 -22 47 -11 0 -22 -6 -25 -12z m153
-53 c-3 -3 -9 2 -12 12 -6 14 -5 15 5 6 7 -7 10 -15 7 -18z m-237 -12 c-12
-20 -14 -14 -5 12 4 9 9 14 11 11 3 -2 0 -13 -6 -23z m186 10 c0 -9 -4 -10
-14 -2 -7 6 -13 12 -13 14 0 1 6 2 13 2 8 0 14 -6 14 -14z m34 -9 c5 -15 8
-29 5 -31 -2 -2 -8 10 -14 26 -13 38 -5 41 9 5z m-297 -10 c3 -8 2 -12 -4 -9
-6 3 -10 10 -10 16 0 14 7 11 14 -7z m153 -6 c-3 -8 -6 -5 -6 6 -1 11 2 17 5
13 3 -3 4 -12 1 -19z m11 -119 c-7 -4 -14 -7 -15 -5 -2 2 2 36 9 77 l13 74 3
-69 c2 -48 -1 -72 -10 -77z m-208 102 c7 -15 7 -19 -5 -17 -20 3 -28 13 -20
25 9 15 13 14 25 -8z m327 -33 c-3 -8 -6 -5 -6 6 -1 11 2 17 5 13 3 -3 4 -12
1 -19z m-284 -3 c-3 -9 -8 -14 -10 -11 -3 3 -2 9 2 15 9 16 15 13 8 -4z m207
-10 c0 -8 -3 -16 -7 -18 -5 -3 -8 5 -8 18 0 13 3 21 8 18 4 -2 7 -10 7 -18z
m115 -5 c-9 -17 -13 -36 -9 -42 4 -6 3 -8 -4 -4 -6 3 -15 -2 -21 -11 -7 -14
-13 -15 -21 -7 -9 9 -3 22 25 53 44 49 51 51 30 11z m-351 9 c-3 -5 0 -18 6
-29 6 -11 8 -20 6 -20 -3 0 -12 13 -20 28 -13 24 -13 29 -1 29 8 0 12 -4 9 -8z
m96 -61 c0 -21 -4 -38 -10 -38 -12 0 -20 35 -17 78 2 28 4 30 15 15 6 -9 12
-34 12 -55z m361 49 c-10 -9 -11 -8 -5 6 3 10 9 15 12 12 3 -3 0 -11 -7 -18z
m-580 -34 c13 -16 12 -17 -3 -4 -10 7 -18 15 -18 17 0 8 8 3 21 -13z m679 -18
c-21 -22 -48 -26 -34 -4 3 5 9 7 14 4 5 -3 14 4 20 16 7 11 14 18 18 15 3 -3
-5 -17 -18 -31z m-97 -25 c-21 -27 -40 -49 -43 -49 -9 -1 -34 18 -30 22 25 20
104 77 107 77 3 0 -13 -22 -34 -50z m-409 -32 c-9 -14 -19 -9 -57 26 -51 47
-46 52 12 14 27 -18 47 -36 45 -40z m283 8 c67 -36 107 -88 118 -154 4 -23 10
-40 14 -37 9 5 12 -23 5 -44 -4 -11 -8 -10 -19 5 -13 16 -14 17 -9 1 3 -9 0
-25 -7 -34 -12 -14 -12 -16 0 -9 9 6 12 4 9 -5 -3 -8 -11 -14 -19 -14 -9 0
-13 -10 -12 -30 2 -31 -13 -58 -29 -49 -5 3 -12 -3 -15 -15 -3 -12 -10 -21
-15 -21 -5 0 -6 -4 -3 -10 3 -6 1 -11 -4 -11 -6 -1 -17 -2 -23 -3 -7 0 -14
-11 -16 -22 -5 -38 -91 -45 -175 -14 -162 61 -216 257 -110 398 67 89 211 121
310 68z m-384 -62 c22 -4 37 -12 37 -20 0 -19 -40 -18 -68 2 -13 9 -44 20 -70
24 l-47 9 55 -4 c30 -3 72 -8 93 -11z m642 -24 c-11 -5 -32 -9 -47 -9 -14 -1
-34 -4 -42 -7 -15 -6 -15 -8 1 -20 16 -13 15 -13 -9 -3 -27 12 -35 28 -21 42
3 4 36 7 72 6 46 0 60 -3 46 -9z m39 -61 c-16 -6 -16 -8 -2 -8 9 -1 19 -5 22
-10 3 -4 -6 -6 -19 -3 -28 5 -27 4 -19 26 3 9 12 12 22 9 13 -6 13 -8 -4 -14z
m-831 4 c-7 -2 -19 -2 -25 0 -7 3 -2 5 12 5 14 0 19 -2 13 -5z m760 0 c-7 -2
-19 -2 -25 0 -7 3 -2 5 12 5 14 0 19 -2 13 -5z m12 -31 c-3 -3 -11 0 -18 7 -9
10 -8 11 6 5 10 -3 15 -9 12 -12z m-725 4 c0 -2 -7 -7 -16 -10 -8 -3 -12 -2
-9 4 6 10 25 14 25 6z m98 -41 c-4 -4 -138 -12 -134 -7 2 1 32 11 67 20 53 15
65 15 67 4 2 -7 2 -15 0 -17z m637 -11 c55 -10 46 -20 -17 -19 -53 0 -63 3
-66 18 -3 16 1 18 25 13 15 -4 42 -9 58 -12z m-792 -61 c-7 -2 -19 -2 -25 0
-7 3 -2 5 12 5 14 0 19 -2 13 -5z m171 -29 c9 -23 1 -31 -42 -38 -22 -3 -52
-16 -68 -28 -20 -16 -25 -17 -15 -5 8 10 32 27 53 38 22 11 41 26 45 34 7 20
19 19 27 -1z m486 -6 c0 -4 -4 -8 -9 -8 -6 0 -12 4 -15 8 -3 5 1 9 9 9 8 0 15
-4 15 -9z m0 -31 c0 -2 -10 -12 -21 -23 -22 -19 -22 -19 -10 4 10 18 31 31 31
19z m86 -37 c24 -22 42 -40 39 -40 -12 0 -55 24 -55 31 0 4 -13 10 -29 14 -20
4 -28 11 -24 21 8 22 23 17 69 -26z m104 0 c9 -16 8 -18 -5 -14 -8 3 -13 10
-10 14 3 5 -1 11 -7 13 -10 4 -10 6 -1 6 7 1 17 -8 23 -19z m-639 -48 c-10
-15 -29 -36 -41 -47 -17 -16 -15 -8 10 32 18 29 37 50 42 47 4 -3 0 -17 -11
-32z m456 -19 c0 -9 -4 -10 -14 -2 -27 23 -11 -3 30 -48 37 -42 39 -45 12 -28
-76 48 -104 72 -94 82 15 15 66 11 66 -4z m-622 -13 c-3 -5 -12 -10 -18 -10
-7 0 -6 4 3 10 19 12 23 12 15 0z m760 -10 c10 -11 16 -20 13 -20 -3 0 -13 9
-23 20 -10 11 -16 20 -13 20 3 0 13 -9 23 -20z m32 3 c0 -9 -4 -10 -14 -2 -7
6 -13 12 -13 14 0 1 6 2 13 2 8 0 14 -6 14 -14z m-762 -2 c3 -5 2 -12 -3 -15
-5 -3 -9 1 -9 9 0 17 3 19 12 6z m237 -27 c-2 -13 -8 -24 -12 -24 -10 0 -31
-50 -25 -61 4 -5 1 -9 -4 -9 -17 0 -13 37 9 79 10 21 16 42 12 45 -3 4 1 4 9
1 11 -4 14 -14 11 -31z m382 20 c3 -8 2 -12 -4 -9 -6 3 -10 10 -10 16 0 14 7
11 14 -7z m90 -3 c14 -15 15 -21 4 -27 -7 -4 -10 -3 -5 1 4 5 0 17 -10 27 -9
10 -14 18 -11 18 3 0 13 -9 22 -19z m-674 5 c0 -2 -8 -10 -17 -17 -16 -13 -17
-12 -4 4 13 16 21 21 21 13z m437 -43 c4 -16 6 -33 5 -39 -1 -6 5 -18 15 -25
9 -8 14 -9 11 -4 -4 6 -2 17 3 25 6 11 8 5 4 -18 -3 -20 -2 -31 4 -28 5 4 12
2 16 -3 9 -16 -36 -3 -56 15 -11 10 -19 23 -19 31 0 8 -7 27 -15 43 -15 28
-14 30 5 30 13 0 22 -9 27 -27z m-127 -21 c0 -21 5 -43 10 -48 7 -7 5 -17 -5
-30 -11 -15 -15 -16 -15 -4 -1 8 -3 22 -5 30 -17 83 -17 90 -1 90 12 0 16 -10
16 -38z m-200 12 c0 -8 -19 -13 -24 -6 -3 5 1 9 9 9 8 0 15 -2 15 -3z m-40
-44 c-5 -9 -17 -23 -27 -31 -17 -13 -17 -12 0 8 11 12 16 26 13 31 -3 5 1 9 9
9 10 0 11 -5 5 -17z m267 -2 c-3 -8 -6 -5 -6 6 -1 11 2 17 5 13 3 -3 4 -12 1
-19z m-307 3 c0 -5 -7 -12 -16 -15 -14 -5 -15 -4 -4 9 14 17 20 19 20 6z m245
-11 c-3 -5 -12 -10 -18 -10 -7 0 -6 4 3 10 19 12 23 12 15 0z m-11 -35 c3 -8
1 -15 -4 -15 -6 0 -10 7 -10 15 0 8 2 15 4 15 2 0 6 -7 10 -15z m150 -28 c7
-6 6 -7 -4 -4 -8 2 -16 14 -17 28 -1 19 -1 20 4 4 3 -11 10 -24 17 -28z m-51
-2 c-3 -9 -8 -14 -10 -11 -3 3 -2 9 2 15 9 16 15 13 8 -4z m69 -17 c-8 -8 -9
-4 -5 13 4 13 8 18 11 10 2 -7 -1 -18 -6 -23z m-174 -33 c-3 -3 -9 2 -12 12
-6 14 -5 15 5 6 7 -7 10 -15 7 -18z"/>
<path d="M343 655 c-17 -7 -34 -18 -37 -24 -9 -14 0 -14 24 -1 11 6 32 7 47 4
27 -7 27 -7 -12 -18 -26 -8 -41 -18 -44 -31 -3 -16 -1 -17 12 -7 12 10 16 10
20 -2 7 -17 59 -30 87 -21 14 5 19 12 15 22 -4 13 -3 14 10 3 13 -10 15 -9 15
9 0 24 -41 71 -62 72 -7 0 -20 2 -29 4 -8 1 -29 -3 -46 -10z"/>
<path d="M583 655 c-17 -7 -36 -22 -42 -33 -17 -32 -20 -109 -5 -130 12 -17
10 -20 -10 -30 -27 -12 -56 1 -56 26 -1 15 -2 14 -12 -2 -9 -16 -7 -22 10 -34
43 -28 25 -58 -30 -54 -38 3 -15 -26 35 -46 34 -13 44 -21 30 -21 -13 -1 -23
-5 -23 -10 0 -4 11 -6 25 -3 15 2 25 0 25 -7 0 -6 5 -11 10 -11 6 0 8 11 4 25
-5 22 -2 28 25 38 37 14 43 40 8 32 -15 -4 -28 -1 -37 10 -12 14 -10 19 16 40
25 21 28 26 17 44 -14 22 -17 73 -6 84 3 4 17 0 31 -9 22 -14 25 -14 43 2 15
13 22 15 27 7 5 -7 13 -9 21 -4 20 13 -26 51 -63 52 -26 0 -28 2 -11 8 11 5
32 5 48 0 40 -11 34 9 -8 27 -40 17 -32 17 -72 -1z m-63 -245 c0 -5 -2 -10 -4
-10 -3 0 -8 5 -11 10 -3 6 -1 10 4 10 6 0 11 -4 11 -10z m-3 -46 c-3 -3 -12
-4 -19 -1 -8 3 -5 6 6 6 11 1 17 -2 13 -5z"/>
<path d="M286 143 c-6 -14 -5 -15 5 -6 7 7 10 15 7 18 -3 3 -9 -2 -12 -12z"/>
</g>
</svg>
